<?xml version="1.0" standalone="no"?>
<!DOCTYPE svg PUBLIC "-//W3C//DTD SVG 20010904//EN"
 "http://www.w3.org/TR/2001/REC-SVG-20010904/DTD/svg10.dtd">
<svg version="1.0" xmlns="http://www.w3.org/2000/svg"
 width="1512.000000pt" height="1512.000000pt" viewBox="0 0 1512.000000 1512.000000"
 preserveAspectRatio="xMidYMid meet">
<metadata>
Created by potrace 1.14, written by Peter Selinger 2001-2017
</metadata>
<g transform="translate(0.000000,1512.000000) scale(0.100000,-0.100000)"
fill="#000000" stroke="none">
<path d="M7465 12047 c-78 -26 -121 -57 -168 -119 -27 -35 -300 -571 -379
-743 -20 -44 -57 -124 -82 -178 -25 -54 -46 -101 -46 -105 0 -5 -8 -26 -19
-48 -48 -101 -107 -244 -193 -464 -36 -91 -69 -174 -73 -185 -5 -11 -9 -22 -9
-25 -1 -3 -6 -18 -13 -35 -17 -45 -26 -69 -28 -75 -1 -3 -5 -13 -9 -22 -4 -9
-9 -22 -10 -30 -2 -7 -7 -24 -13 -38 -6 -14 -20 -54 -32 -90 -12 -36 -25 -72
-28 -80 -3 -8 -7 -19 -8 -25 -7 -28 -58 -182 -65 -195 -4 -9 -11 -31 -16 -50
-10 -43 -9 -42 -17 -60 -7 -19 -28 -87 -31 -103 -2 -7 -6 -19 -9 -27 -3 -8
-11 -35 -17 -60 -6 -25 -18 -64 -26 -88 -8 -23 -13 -46 -12 -50 0 -4 -2 -14
-5 -22 -5 -12 -21 -67 -33 -112 -1 -5 -2 -9 -4 -10 -1 -2 -3 -12 -4 -23 -3
-17 -17 -75 -32 -126 -5 -16 11 -33 152 -171 140 -135 378 -392 490 -528 16
-19 38 -45 49 -57 11 -12 31 -36 45 -54 14 -17 30 -37 35 -43 11 -12 141 -178
185 -236 14 -19 41 -57 60 -85 19 -27 36 -52 40 -55 24 -20 283 -429 325 -515
11 -22 22 -42 25 -45 3 -3 17 -29 30 -57 26 -56 37 -64 47 -35 7 18 106 196
123 222 6 8 16 26 22 40 7 14 15 27 19 30 3 3 14 21 24 40 10 19 21 37 25 40
3 3 24 34 45 70 21 36 41 67 45 70 5 4 69 98 95 138 6 9 38 53 73 99 34 46 62
86 62 88 0 3 8 13 18 24 9 10 28 33 42 51 14 19 30 38 35 44 6 6 21 26 34 44
13 19 34 46 48 60 13 14 34 39 46 54 12 16 33 42 47 58 14 15 48 54 75 86 28
32 64 72 80 90 17 18 47 52 69 76 52 57 343 353 394 400 l39 36 -14 54 c-8 29
-16 62 -18 73 -3 11 -23 85 -45 165 -23 80 -43 154 -45 165 -6 25 -54 185 -62
205 -4 8 -7 17 -7 20 -8 35 -31 107 -36 115 -7 9 -23 67 -24 87 -1 3 -4 10 -8
14 -5 4 -8 14 -8 23 0 9 -7 29 -15 45 -8 15 -15 35 -15 42 0 8 -4 22 -9 32 -5
9 -44 114 -87 232 -42 118 -84 231 -93 250 -8 19 -15 37 -15 40 -1 3 -14 37
-29 75 -16 39 -33 79 -37 90 -4 11 -20 47 -35 80 -15 33 -28 65 -29 70 -2 6
-9 26 -18 45 -9 19 -34 78 -58 130 -23 52 -53 120 -68 150 -14 30 -26 57 -27
60 -2 11 -52 114 -166 347 -66 133 -119 247 -119 252 0 5 -4 11 -9 13 -7 3
-26 37 -99 183 -23 45 -120 135 -145 135 -7 0 -18 5 -24 11 -17 17 -153 21
-198 6z"/>
<path d="M5105 11757 c-65 -21 -121 -54 -160 -93 -42 -43 -53 -61 -80 -134 -5
-14 -19 -96 -17 -102 1 -5 -2 -8 -6 -8 -5 0 -8 -10 -7 -22 1 -13 -3 -41 -10
-63 -6 -22 -10 -46 -7 -53 2 -6 0 -12 -5 -12 -6 0 -9 -10 -8 -22 1 -13 -2 -39
-6 -58 -4 -19 -10 -48 -13 -65 -3 -16 -8 -40 -10 -53 -5 -21 -40 -233 -52
-304 -2 -16 -6 -43 -9 -60 -3 -18 -7 -44 -10 -58 -3 -14 -7 -45 -10 -70 -3
-25 -7 -58 -10 -75 -3 -16 -7 -50 -10 -75 -3 -25 -7 -61 -9 -80 -3 -19 -8 -62
-12 -95 -3 -33 -8 -69 -10 -80 -2 -11 -6 -56 -10 -100 -3 -44 -7 -83 -7 -86
-2 -6 57 -59 66 -59 10 0 469 -324 503 -355 6 -5 22 -17 34 -25 12 -8 39 -28
60 -45 20 -16 69 -55 109 -85 39 -30 71 -59 71 -64 0 -5 3 -7 6 -3 3 3 16 -4
29 -16 12 -12 40 -35 61 -52 20 -16 70 -58 110 -92 40 -35 76 -63 81 -63 5 0
17 33 27 73 10 39 34 126 53 192 19 66 36 125 38 130 1 6 5 17 8 25 3 8 24 76
47 150 22 74 45 144 50 155 5 11 18 52 31 90 12 39 24 75 28 80 3 6 6 15 7 20
2 14 91 258 119 327 13 31 20 59 17 62 -3 3 0 6 6 6 7 0 12 7 12 15 0 14 61
173 79 206 7 11 -1 27 -30 58 -21 23 -39 44 -39 47 0 3 -6 11 -13 18 -7 8 -33
37 -58 66 -24 29 -49 58 -54 64 -6 6 -35 40 -65 75 -30 35 -64 74 -75 86 -11
12 -40 44 -64 71 -79 89 -244 264 -385 410 -151 157 -203 192 -296 200 -29 2
-55 6 -59 7 -3 2 -19 -1 -36 -6z"/>
<path d="M9840 11743 c-25 -9 -63 -29 -85 -46 -38 -30 -201 -195 -336 -341
-35 -38 -85 -91 -111 -118 -27 -28 -48 -52 -48 -54 0 -3 -18 -22 -40 -44 -22
-22 -40 -41 -40 -44 0 -3 -12 -18 -27 -34 -16 -16 -47 -51 -71 -78 -23 -27
-50 -58 -60 -69 -10 -11 -39 -44 -63 -74 -24 -30 -53 -64 -64 -76 -11 -12 -32
-36 -47 -54 l-27 -32 18 -47 c11 -26 31 -78 46 -117 15 -38 33 -83 39 -100 7
-16 28 -70 45 -120 18 -49 40 -108 50 -130 9 -21 16 -42 16 -45 1 -10 36 -115
46 -135 5 -11 18 -49 29 -85 12 -36 24 -72 27 -80 3 -8 7 -19 8 -25 2 -9 37
-121 51 -165 3 -8 5 -16 5 -17 0 -2 7 -22 15 -45 9 -24 17 -50 19 -58 15 -55
26 -94 45 -155 11 -38 23 -77 24 -85 5 -20 26 -101 32 -122 7 -24 14 -23 49 8
46 39 66 55 125 104 30 25 57 47 60 50 3 3 36 30 75 60 91 71 105 83 120 98 8
6 16 12 19 12 3 0 14 8 24 18 10 9 29 24 42 32 12 8 28 20 34 25 6 6 27 22 46
35 35 25 51 36 73 55 7 6 35 26 62 45 28 19 55 38 60 42 25 21 163 116 193
133 17 11 32 22 32 25 0 3 20 16 45 30 25 14 45 28 45 32 0 5 6 8 14 8 20 0
28 31 22 77 -3 21 -8 67 -12 103 -12 117 -13 125 -14 125 -1 0 -3 20 -5 45 -2
25 -6 55 -9 68 -3 13 -6 43 -7 68 -2 24 -5 44 -8 44 -3 0 -6 12 -6 28 -1 33
-15 144 -20 152 -2 3 -6 28 -9 55 -3 28 -8 64 -11 80 -6 35 -16 92 -21 120 -1
11 -10 61 -19 110 -17 100 -23 134 -29 168 -14 69 -27 135 -31 157 -28 146
-39 189 -58 230 -22 47 -98 118 -150 141 -64 27 -164 33 -227 12z"/>
<path d="M2563 10619 c-147 -19 -267 -141 -278 -280 -2 -33 -7 -64 -10 -70 -4
-5 -2 -9 3 -9 4 0 8 -27 8 -61 -1 -33 2 -62 5 -64 3 -2 4 -19 3 -37 -1 -18 2
-40 7 -50 6 -10 5 -19 -1 -23 -6 -4 -7 -11 -4 -17 4 -5 8 -33 10 -61 4 -53 11
-133 18 -197 3 -19 7 -62 10 -95 7 -76 16 -151 22 -190 2 -16 7 -55 9 -85 3
-30 7 -61 10 -70 2 -8 7 -42 11 -75 3 -33 8 -69 10 -80 6 -29 13 -75 18 -115
2 -19 7 -46 10 -60 3 -14 8 -41 11 -60 8 -59 51 -299 61 -340 3 -14 7 -36 9
-50 2 -14 7 -36 10 -50 4 -14 9 -38 12 -55 2 -16 7 -37 10 -45 3 -8 7 -25 9
-38 1 -13 12 -60 23 -106 12 -46 23 -94 25 -107 3 -13 5 -24 6 -24 2 0 3 -5
13 -55 3 -14 10 -40 16 -59 6 -19 8 -37 6 -42 -3 -4 -1 -10 4 -13 5 -3 12 -23
16 -43 4 -21 13 -56 20 -78 8 -22 16 -51 19 -65 2 -14 9 -36 14 -50 5 -14 10
-28 11 -32 2 -14 5 -25 21 -78 7 -25 14 -47 15 -50 0 -3 14 -45 30 -95 16 -49
30 -94 31 -100 11 -48 162 -460 195 -532 10 -24 19 -46 19 -49 0 -31 264 -596
373 -799 90 -168 102 -190 108 -195 3 -3 19 -30 35 -60 16 -30 31 -57 34 -60
10 -10 70 -112 70 -119 0 -4 9 -16 20 -26 11 -10 20 -22 20 -27 0 -7 55 -95
78 -123 4 -5 17 -25 27 -42 11 -18 23 -33 27 -33 4 0 8 -4 8 -10 0 -8 94 -145
110 -160 3 -3 21 -25 40 -50 19 -25 38 -46 42 -48 5 -2 8 -8 8 -13 0 -5 12
-21 28 -36 15 -16 39 -44 53 -63 26 -35 231 -244 305 -310 178 -161 418 -326
624 -430 66 -33 208 -94 270 -115 3 -1 12 -4 20 -8 23 -9 149 -45 205 -58 62
-14 72 -16 165 -29 172 -24 181 -23 121 19 -89 61 -235 193 -351 316 -104 112
-138 153 -233 280 -37 50 -71 95 -77 102 -5 7 -10 16 -10 22 0 5 -4 11 -8 13
-18 7 -259 418 -245 418 3 0 0 7 -7 15 -11 13 -125 251 -127 265 0 3 -8 23
-18 45 -9 22 -26 65 -37 95 -10 30 -23 64 -28 75 -23 51 -132 393 -145 453 -6
28 -9 38 -39 147 -14 50 -26 100 -26 113 0 12 -5 22 -11 22 -5 0 -8 4 -5 8 3
5 -6 51 -19 103 -13 52 -26 110 -28 129 -3 19 -6 35 -7 35 -2 0 -4 9 -6 20 -1
11 -12 67 -24 125 -12 58 -23 114 -25 125 -1 11 -5 36 -9 55 -9 49 -15 89 -22
130 -3 19 -7 46 -10 60 -3 14 -7 43 -10 65 -2 22 -6 51 -8 65 -12 76 -18 119
-21 155 -2 22 -6 57 -9 78 -7 45 -14 117 -21 202 -3 33 -7 74 -9 90 -4 27 -8
84 -22 280 -23 343 -23 1039 0 1405 2 30 7 102 11 160 8 126 8 112 6 130 -1
13 -228 160 -300 195 -12 5 -21 13 -21 17 0 5 -4 8 -9 8 -5 0 -62 31 -128 68
-179 103 -388 216 -392 213 -2 -1 -7 1 -10 6 -3 4 -42 26 -86 48 -44 22 -101
52 -127 67 -27 15 -48 25 -48 21 0 -3 -8 1 -18 10 -10 10 -22 14 -25 10 -4 -3
-7 -1 -7 5 0 7 -3 11 -7 10 -5 -1 -78 33 -163 74 -203 99 -234 108 -317 97z"/>
<path d="M12462 10618 c-29 -4 -71 -17 -92 -28 -22 -11 -40 -18 -40 -15 0 4
-13 -3 -29 -14 -16 -12 -36 -21 -44 -21 -8 0 -20 -7 -27 -15 -7 -8 -18 -15
-25 -15 -13 0 -101 -45 -122 -62 -7 -6 -13 -8 -13 -5 0 7 -250 -120 -264 -134
-6 -5 -18 -9 -28 -9 -10 0 -18 -4 -18 -10 0 -5 -7 -10 -15 -10 -8 0 -15 -5
-15 -12 0 -6 -3 -8 -7 -5 -3 4 -11 3 -17 -2 -6 -4 -45 -26 -86 -48 -118 -64
-194 -105 -205 -113 -5 -4 -32 -20 -60 -35 -96 -52 -190 -110 -193 -117 -2 -5
-9 -8 -16 -8 -7 0 -43 -19 -79 -42 -36 -24 -93 -60 -126 -80 l-60 -36 4 -64
c3 -35 7 -106 10 -158 3 -52 7 -133 10 -180 3 -47 7 -158 10 -248 2 -90 7
-167 10 -172 3 -5 1 -11 -4 -14 -5 -3 -8 -14 -6 -24 12 -59 13 -92 3 -86 -6 4
-8 3 -4 -4 11 -19 5 -498 -9 -672 -3 -36 -7 -103 -10 -150 -8 -127 -14 -209
-21 -265 -3 -27 -7 -70 -9 -95 -1 -25 -3 -45 -4 -45 -1 0 -4 -21 -6 -47 -4
-50 -15 -139 -20 -167 -1 -9 -6 -45 -10 -81 -4 -36 -9 -68 -11 -71 -1 -3 -6
-30 -9 -60 -3 -30 -10 -76 -15 -104 -6 -27 -12 -63 -14 -80 -7 -54 -17 -109
-26 -145 -5 -19 -11 -53 -15 -75 -3 -23 -8 -52 -11 -65 -3 -14 -7 -36 -10 -50
-3 -14 -7 -32 -9 -40 -3 -8 -7 -33 -11 -55 -3 -22 -10 -48 -15 -57 -5 -10 -8
-18 -6 -18 2 0 -9 -53 -25 -117 -15 -65 -31 -129 -33 -143 -3 -14 -8 -32 -11
-40 -5 -13 -68 -237 -78 -281 -2 -8 -11 -32 -20 -52 -8 -20 -13 -37 -11 -37
13 0 -145 -408 -221 -569 -30 -62 -54 -117 -54 -122 0 -5 -5 -9 -12 -9 -6 0
-9 -3 -5 -6 3 -3 -5 -24 -19 -45 -13 -21 -24 -41 -24 -45 0 -27 -295 -482
-340 -524 -3 -3 -32 -39 -65 -80 -68 -84 -263 -283 -344 -350 -29 -25 -59 -51
-67 -57 -7 -7 -17 -13 -23 -13 -6 0 -11 -3 -11 -7 0 -5 -14 -17 -30 -28 -16
-11 -30 -23 -30 -26 0 -7 51 -4 131 7 30 4 65 8 79 10 14 1 25 3 25 4 0 1 7 3
16 5 111 21 277 70 364 106 17 7 32 13 35 14 3 0 14 6 25 12 11 6 23 11 28 12
12 1 188 90 242 121 28 17 65 38 83 47 17 9 32 20 32 25 0 4 5 8 10 8 15 0
122 78 270 195 75 60 327 306 408 398 52 59 202 254 257 332 22 32 46 63 53
71 6 7 12 15 12 18 0 5 43 73 58 91 5 6 21 33 37 60 16 28 33 55 37 60 14 17
58 86 58 90 0 2 20 36 44 77 25 40 55 93 67 118 13 25 25 47 29 50 11 9 219
421 280 555 56 123 150 347 192 455 42 110 108 288 112 305 2 6 6 17 9 25 11
26 146 451 152 480 2 8 14 49 25 90 12 41 24 83 26 93 2 9 7 27 10 40 3 12 7
29 9 37 2 8 4 16 5 18 2 1 4 7 5 12 1 6 3 11 4 13 2 1 4 13 6 27 2 14 15 70
29 125 13 55 27 111 29 125 3 14 16 77 30 140 14 63 28 129 31 145 11 58 15
80 20 105 8 34 25 128 30 165 3 17 7 42 10 58 15 70 17 85 20 122 2 22 6 49 9
60 3 11 9 40 12 65 2 25 7 54 9 65 2 11 7 47 11 80 4 32 8 67 10 76 6 29 16
115 20 170 2 30 5 54 6 54 1 0 3 19 13 125 4 41 9 86 11 100 2 14 7 54 10 90
4 36 9 68 12 73 2 4 -1 7 -7 7 -6 0 -9 4 -6 8 9 14 15 62 22 177 13 194 9 231
-34 304 -66 113 -196 178 -320 159z"/>
<path d="M10499 9542 c-2 -5 -47 -38 -99 -73 -52 -35 -104 -72 -115 -82 -11
-10 -36 -28 -55 -40 -19 -11 -37 -24 -40 -27 -6 -7 -192 -150 -251 -193 -22
-15 -39 -32 -39 -38 0 -5 -4 -9 -10 -9 -9 0 -30 -16 -86 -65 -12 -11 -32 -27
-44 -35 -12 -8 -34 -26 -49 -40 -23 -21 -96 -85 -175 -153 -22 -19 -148 -134
-220 -200 -91 -85 -284 -278 -399 -400 -143 -152 -127 -134 -202 -222 -33 -38
-67 -77 -75 -86 -28 -32 -45 -53 -90 -110 -25 -31 -53 -64 -63 -73 -9 -10 -17
-21 -17 -25 0 -4 -18 -27 -40 -51 -22 -25 -40 -48 -40 -52 0 -4 -6 -13 -13
-20 -7 -7 -28 -35 -47 -63 -19 -27 -37 -52 -40 -55 -3 -3 -19 -25 -35 -50 -16
-25 -32 -47 -35 -50 -3 -3 -19 -25 -35 -50 -16 -25 -34 -48 -38 -51 -5 -3 -9
-10 -10 -15 0 -5 -19 -38 -42 -74 -23 -36 -45 -72 -49 -80 -12 -27 -31 -57
-45 -74 -7 -9 -10 -16 -5 -16 5 0 4 -4 -3 -8 -17 -11 -208 -390 -218 -432 0
-3 -9 -20 -18 -37 -10 -18 -15 -33 -12 -33 3 0 -1 -12 -8 -27 -24 -48 -120
-340 -132 -402 -2 -12 -7 -31 -10 -41 -3 -10 -7 -27 -9 -37 -2 -10 -9 -36 -14
-58 -6 -22 -13 -51 -16 -65 -17 -78 -27 -128 -31 -155 -2 -16 -6 -41 -9 -55
-3 -14 -7 -43 -11 -65 -3 -22 -8 -53 -10 -70 -20 -115 -30 -283 -29 -485 0
-236 14 -387 44 -464 5 -13 6 -27 3 -30 -3 -3 -1 -12 6 -20 6 -8 11 -18 10
-22 -1 -5 3 -22 9 -37 7 -16 12 -32 12 -37 0 -8 33 -79 51 -110 5 -8 12 -22
16 -30 12 -29 94 -132 130 -163 122 -109 249 -157 418 -158 96 0 119 3 280 37
70 14 288 107 370 157 70 43 191 121 195 127 3 3 24 19 47 36 90 65 216 184
341 320 56 63 78 89 145 177 12 16 27 34 32 40 6 7 37 53 70 102 33 50 62 92
65 95 3 3 16 25 29 50 14 25 27 47 30 50 13 11 153 288 149 293 -2 2 2 10 8
18 16 19 114 255 114 274 0 8 4 15 8 15 5 0 9 7 10 15 1 8 3 22 4 30 1 8 5 15
10 15 4 0 7 3 7 8 -1 4 0 10 1 15 1 4 3 10 4 15 11 44 63 189 71 194 5 4 7 8
3 8 -4 0 -3 12 2 28 33 110 62 209 65 222 2 8 13 51 25 95 12 44 23 90 26 102
2 12 16 71 30 130 14 60 28 119 30 133 2 14 9 48 15 75 6 28 13 61 15 75 3 14
10 52 16 85 6 33 12 67 13 75 2 16 14 90 21 125 2 11 7 40 10 65 3 25 7 56 10
70 2 14 7 43 9 65 3 22 8 58 11 80 11 87 14 112 18 167 2 31 6 61 9 65 2 4 5
26 6 48 1 22 4 56 6 75 7 69 18 236 19 297 1 35 3 63 6 63 14 0 19 823 7 1100
-11 260 -17 313 -28 282z"/>
<path d="M4589 9523 c-1 -10 -2 -31 -4 -48 -11 -123 -19 -389 -19 -660 0 -364
8 -593 30 -855 3 -41 8 -95 9 -120 4 -51 14 -160 21 -205 2 -16 6 -55 9 -85 3
-30 7 -64 9 -75 3 -20 16 -111 22 -170 2 -16 6 -46 9 -65 3 -19 7 -51 10 -70
3 -19 9 -57 15 -85 5 -27 12 -66 15 -85 4 -33 8 -57 20 -115 3 -14 7 -37 10
-52 3 -16 8 -39 11 -53 6 -23 9 -39 18 -95 2 -11 4 -20 5 -20 3 0 6 -15 14
-60 3 -16 15 -68 27 -115 11 -47 23 -96 26 -110 18 -91 117 -414 176 -580 43
-122 150 -374 161 -381 5 -4 7 -11 3 -17 -3 -6 -3 -12 1 -14 5 -1 21 -30 38
-63 28 -57 69 -132 130 -240 34 -60 67 -109 78 -113 4 -2 5 -8 1 -13 -3 -5 -1
-9 5 -9 5 0 13 -9 16 -20 3 -11 12 -26 19 -32 6 -7 27 -35 46 -63 19 -27 38
-52 41 -55 3 -3 12 -15 20 -27 57 -83 342 -373 445 -452 162 -126 363 -241
516 -296 42 -15 80 -27 82 -27 3 1 24 -5 46 -13 22 -8 40 -12 40 -10 0 3 12 0
26 -5 77 -30 375 -33 504 -5 14 3 41 8 60 11 19 3 38 8 42 10 3 2 -16 41 -43
86 -27 44 -49 87 -49 95 0 7 -5 13 -12 13 -6 0 -8 3 -5 7 4 3 2 12 -4 20 -6 7
-8 13 -4 13 4 0 3 6 -3 13 -16 20 -49 124 -76 237 -37 153 -55 284 -60 446 -2
44 -6 86 -10 92 -4 7 -4 12 1 12 4 0 9 11 9 25 1 15 -2 22 -9 18 -6 -3 -7 -1
-3 6 4 6 9 63 12 127 2 63 6 136 9 162 3 26 7 74 10 107 5 55 29 215 41 275 2
14 7 41 10 60 2 19 9 50 14 70 5 19 11 46 14 60 9 49 37 165 43 180 3 8 7 20
7 25 2 14 26 97 33 115 3 8 8 26 10 40 2 13 8 29 12 35 5 5 12 26 16 45 4 19
12 41 17 48 6 6 7 12 3 12 -4 0 -3 6 2 13 21 26 21 61 1 106 -48 108 -209 431
-219 436 -5 4 -7 11 -4 16 4 5 2 9 -3 9 -4 0 -16 17 -26 38 -10 20 -65 109
-124 197 -108 163 -114 173 -144 206 -10 10 -18 22 -19 27 -1 6 -136 190 -149
202 -3 3 -24 27 -45 55 -22 27 -44 55 -50 62 -5 7 -15 18 -21 25 -54 67 -185
221 -213 251 -90 97 -101 110 -101 120 0 6 -3 8 -6 5 -3 -4 -22 12 -42 35 -64
71 -313 318 -432 427 -62 58 -124 114 -136 126 -12 11 -44 38 -70 60 -27 21
-53 44 -59 50 -9 10 -49 44 -154 129 -14 11 -35 30 -48 43 -13 12 -26 22 -29
22 -4 0 -178 136 -232 181 -12 10 -26 19 -31 19 -5 0 -11 3 -13 8 -1 4 -32 28
-68 54 -36 26 -72 53 -80 60 -8 7 -22 18 -31 23 -24 15 -67 45 -126 87 -60 43
-63 44 -64 21z"/>
<path d="M837 8794 c-1 -1 -23 -4 -48 -7 -82 -10 -179 -78 -223 -157 -27 -47
-44 -125 -40 -185 4 -56 31 -116 136 -298 39 -67 79 -136 89 -154 10 -17 30
-51 45 -75 15 -24 38 -62 51 -86 12 -23 27 -48 33 -55 18 -21 170 -269 170
-278 0 -4 4 -9 8 -11 5 -1 29 -34 53 -73 23 -38 46 -72 49 -75 3 -3 41 -59 85
-125 44 -66 85 -126 92 -132 13 -14 36 -17 47 -6 3 4 12 8 19 9 9 2 332 122
407 151 8 4 17 7 20 8 18 4 269 88 285 95 25 11 86 29 113 35 11 2 29 8 39 13
10 5 42 15 71 22 28 6 54 15 57 19 2 4 -5 37 -16 72 -11 35 -22 75 -25 88 -3
13 -9 31 -13 40 -5 9 -9 18 -8 21 1 5 -25 109 -32 130 -1 3 -6 21 -11 40 -5
19 -20 80 -35 135 -35 135 -35 135 -41 174 -2 18 -9 42 -15 52 -5 10 -8 19 -5
19 3 0 0 15 -5 33 -5 17 -12 47 -15 66 -9 56 -13 71 -18 79 -3 5 -7 26 -10 48
-3 21 -8 53 -12 69 -4 17 -8 39 -9 50 -2 11 -4 21 -5 23 -4 3 -6 14 -14 69 -4
29 -11 55 -15 57 -12 8 -289 39 -358 40 -24 1 -43 3 -43 6 0 5 -33 7 -166 14
-28 2 -55 5 -60 7 -5 3 -35 5 -66 5 -32 -1 -58 1 -58 4 0 3 -35 6 -78 7 -76 2
-297 12 -380 17 -23 1 -43 2 -45 0z"/>
<path d="M14248 8795 c-2 -1 -75 -5 -163 -9 -153 -6 -215 -10 -385 -22 -153
-10 -305 -23 -305 -24 0 -1 -20 -3 -45 -5 -25 -1 -65 -5 -90 -8 -25 -3 -72 -9
-104 -13 -33 -3 -67 -8 -75 -9 -9 -2 -28 -4 -42 -4 -27 -1 -27 0 -43 -86 -2
-11 -7 -38 -11 -60 -5 -22 -9 -48 -10 -57 -2 -10 -3 -19 -5 -20 -2 -4 -9 -36
-14 -68 -2 -14 -11 -56 -20 -95 -9 -38 -19 -86 -22 -105 -3 -19 -8 -38 -11
-43 -2 -4 -7 -19 -9 -34 -3 -15 -19 -81 -35 -148 -17 -66 -32 -127 -34 -135
-2 -8 -4 -15 -5 -15 -1 0 -3 -11 -6 -25 -2 -14 -13 -54 -24 -90 -10 -36 -25
-87 -31 -115 -7 -27 -22 -77 -34 -112 l-22 -62 86 -26 c47 -15 93 -30 101 -33
8 -3 19 -4 24 -3 4 1 13 -2 20 -7 6 -5 31 -14 56 -21 25 -7 54 -17 65 -21 11
-5 52 -18 90 -31 39 -12 74 -25 80 -30 5 -5 16 -9 25 -9 8 0 58 -16 110 -35
129 -48 125 -46 127 -46 2 0 40 -15 85 -34 45 -19 88 -35 94 -35 6 0 25 -7 40
-15 42 -21 56 -18 80 18 11 18 86 129 166 248 80 119 169 257 198 305 30 49
58 92 64 96 7 5 7 8 1 8 -6 0 -6 3 1 8 6 4 24 30 39 57 16 28 33 53 38 56 5 3
8 9 8 13 -1 3 34 68 79 142 44 75 80 138 80 139 0 2 23 43 50 90 28 48 52 95
54 104 2 9 6 23 9 31 5 15 6 23 8 83 3 126 -102 264 -227 296 -43 11 -101 20
-106 16z"/>
<path d="M2440 7029 c-30 -11 -56 -19 -57 -20 -5 0 -31 -8 -193 -60 -91 -29
-166 -52 -167 -51 -2 0 -26 -9 -55 -22 -29 -13 -69 -27 -88 -31 -19 -4 -39
-11 -45 -15 -5 -3 -39 -17 -75 -29 -36 -13 -77 -29 -92 -37 -16 -9 -28 -12
-28 -8 0 3 -7 1 -15 -6 -8 -7 -15 -10 -15 -6 0 4 -11 -1 -24 -10 -14 -8 -29
-16 -33 -16 -9 0 -12 -2 -153 -58 -58 -23 -109 -45 -115 -50 -10 -7 -60 -21
-71 -19 -4 0 -10 -3 -13 -8 -8 -12 -264 -124 -277 -122 -4 0 -10 -3 -13 -8 -3
-5 -40 -24 -81 -43 -91 -41 -370 -177 -500 -245 -52 -27 -98 -48 -102 -47 -5
1 -8 -2 -8 -6 0 -5 -16 -14 -35 -22 -19 -8 -35 -17 -35 -22 0 -4 -6 -8 -12 -8
-21 0 -73 -61 -104 -120 -26 -48 -29 -65 -28 -140 1 -152 52 -220 253 -335 67
-38 134 -77 149 -86 15 -9 47 -27 72 -41 25 -14 61 -34 80 -45 57 -32 180 -98
250 -134 36 -19 67 -37 68 -41 2 -5 12 -8 22 -8 10 0 20 -3 22 -7 5 -13 518
-263 538 -263 5 0 10 -5 10 -12 0 -6 3 -8 6 -5 4 4 23 -2 43 -13 34 -19 130
-62 141 -64 5 -1 92 -39 165 -71 68 -31 363 -145 374 -145 6 0 11 -5 11 -11 0
-5 4 -8 8 -5 5 3 20 -1 35 -9 15 -8 27 -11 27 -8 0 3 7 0 15 -7 8 -7 15 -9 15
-5 0 4 11 0 25 -9 14 -9 25 -14 25 -11 0 2 24 -5 53 -16 28 -12 75 -28 102
-36 28 -8 55 -18 60 -21 6 -4 15 -7 20 -8 11 -2 201 -62 225 -71 8 -3 20 -7
25 -8 6 0 17 -4 25 -8 8 -3 49 -15 90 -27 41 -11 89 -24 105 -29 33 -11 150
-41 178 -46 9 -2 21 -6 25 -9 9 -5 59 -17 80 -18 6 -1 12 -5 12 -10 0 -5 4 -7
9 -3 6 3 29 1 53 -5 111 -28 165 -40 188 -44 30 -5 80 -15 100 -21 8 -2 31 -7
50 -10 19 -3 60 -10 90 -17 30 -6 64 -12 75 -14 11 -1 76 -11 145 -23 131 -22
188 -30 255 -37 22 -2 56 -6 75 -9 49 -7 125 -15 190 -20 l54 -3 -24 19 c-14
10 -30 19 -37 19 -6 0 -13 4 -15 8 -1 4 -39 32 -83 62 -44 30 -86 61 -93 68
-8 7 -30 25 -50 40 -21 15 -42 32 -48 37 -6 6 -25 21 -43 34 -57 44 -251 230
-346 332 -53 57 -83 91 -163 186 -10 12 -27 34 -38 48 -10 15 -24 32 -29 39
-23 25 -136 179 -146 199 -7 12 -15 24 -19 27 -4 3 -29 39 -55 80 -27 41 -52
77 -55 80 -3 3 -14 21 -24 40 -11 19 -22 37 -25 40 -3 3 -15 21 -25 40 -11 19
-22 37 -25 40 -3 3 -12 16 -20 30 -8 14 -54 94 -103 179 -48 84 -88 155 -88
158 0 3 -9 18 -21 34 -11 16 -17 29 -14 29 3 0 -2 12 -13 28 -19 27 -145 281
-197 397 -15 33 -37 83 -50 110 -44 97 -65 145 -65 150 0 2 -10 28 -23 57 -49
112 -130 319 -130 336 0 6 -4 12 -9 12 -4 0 -7 3 -6 8 5 15 -44 132 -55 131
-7 0 -37 -9 -67 -20z"/>
<path d="M12552 6958 c-18 -51 -35 -97 -36 -103 -2 -5 -8 -23 -14 -38 -7 -16
-12 -30 -12 -31 0 -2 -8 -21 -17 -42 -9 -22 -18 -43 -19 -49 -1 -5 -10 -28
-19 -50 -23 -53 -38 -89 -40 -95 -7 -22 -35 -86 -89 -203 -20 -44 -36 -81 -36
-83 0 -2 -18 -41 -40 -85 -22 -45 -40 -85 -40 -91 0 -5 -5 -14 -10 -21 -6 -7
-39 -68 -74 -137 -72 -144 -115 -222 -203 -374 -35 -60 -63 -112 -63 -116 0
-5 -3 -10 -8 -12 -4 -1 -41 -57 -82 -123 -189 -306 -393 -575 -582 -768 -38
-38 -68 -73 -68 -78 0 -5 -3 -9 -7 -9 -5 0 -28 -19 -53 -43 -57 -55 -142 -131
-204 -182 -27 -22 -58 -48 -69 -57 -11 -10 -23 -18 -26 -18 -3 0 -20 -14 -38
-30 -18 -17 -36 -30 -40 -30 -5 0 -20 -11 -35 -25 -15 -14 -30 -25 -33 -25 -3
0 -27 -15 -54 -32 -26 -18 -57 -38 -67 -45 -16 -9 -9 -11 36 -8 30 2 55 4 55
5 0 1 27 3 60 6 33 2 76 7 95 10 19 3 53 7 75 10 22 2 72 9 110 15 39 6 81 12
95 14 14 2 57 8 95 15 39 6 84 14 100 17 17 2 95 18 175 34 80 16 154 31 165
33 11 2 52 12 90 21 39 9 81 19 95 22 45 9 55 11 55 13 0 1 8 3 18 6 9 2 25 6
35 8 9 3 17 5 17 6 0 1 9 3 20 5 11 1 88 21 170 45 83 23 157 43 165 45 8 2
16 4 18 5 1 2 5 3 10 5 4 1 14 4 22 7 8 3 69 22 135 42 131 41 268 89 415 143
52 20 101 36 108 36 6 0 12 4 12 9 0 4 7 8 15 8 13 0 90 29 190 71 288 120
300 125 437 187 37 17 69 28 72 24 3 -3 6 -1 6 5 0 5 27 21 60 34 33 13 60 27
60 31 0 5 9 8 20 8 11 0 20 5 20 12 0 6 3 9 6 5 3 -3 42 13 87 36 45 23 84 42
87 42 9 2 105 50 110 55 3 3 32 18 65 34 33 16 66 34 74 40 7 5 19 11 25 12 7
1 30 13 52 26 21 13 58 32 81 43 24 11 43 23 43 28 0 4 4 7 10 7 5 0 47 21 92
46 46 26 108 60 138 77 30 16 67 38 82 49 14 10 29 18 33 18 3 0 31 16 61 35
30 19 57 35 60 35 9 0 98 63 112 80 72 84 101 192 79 300 -17 84 -89 165 -194
220 -38 19 -71 39 -74 43 -3 5 -9 8 -13 8 -10 -1 -140 63 -154 77 -7 6 -17 12
-21 12 -5 0 -91 40 -192 89 -238 114 -326 155 -372 172 -20 7 -37 17 -37 21 0
4 -3 7 -7 6 -9 -1 -40 9 -64 22 -9 4 -56 25 -105 45 -49 21 -100 42 -114 48
-14 6 -27 11 -30 12 -24 8 -48 18 -62 25 -9 5 -54 23 -100 40 -45 17 -92 36
-103 40 -25 12 -136 53 -150 56 -5 1 -48 17 -95 34 -47 18 -89 33 -95 35 -5 1
-23 7 -38 13 -16 7 -33 12 -38 12 -5 0 -17 4 -27 9 -9 5 -42 17 -72 26 -30 9
-118 36 -195 61 -77 24 -145 44 -150 44 -6 0 -25 -42 -43 -92z"/>
<path d="M2838 3844 c-2 -1 -17 -5 -33 -8 -86 -16 -135 -110 -114 -221 19
-101 84 -193 210 -298 58 -49 322 -168 352 -159 4 1 7 -3 7 -9 0 -5 3 -8 8 -5
4 2 34 -2 67 -10 94 -23 98 -24 140 -29 22 -2 49 -6 61 -9 11 -2 41 -5 65 -7
24 -1 48 -5 53 -7 14 -8 210 -15 416 -15 168 -1 312 5 505 18 117 8 292 24
340 30 17 2 57 7 90 10 33 4 71 8 85 10 14 3 45 7 70 10 25 3 61 7 80 10 19 3
59 7 89 11 30 3 64 8 75 10 12 3 37 6 56 9 54 6 242 34 273 40 15 3 45 7 67 8
22 1 40 4 40 8 0 3 10 5 23 5 12 1 42 4 67 8 25 4 56 9 70 11 14 2 57 8 95 15
39 6 81 13 95 15 14 2 41 6 60 10 19 3 51 8 70 10 19 2 35 4 35 5 0 3 41 10
80 14 22 3 96 14 165 24 154 25 206 33 245 37 17 2 46 6 65 9 35 5 73 10 180
22 67 8 100 19 101 36 3 27 -3 43 -19 53 -23 13 -16 12 -252 32 -109 9 -786 8
-1055 -2 -294 -11 -1040 -11 -1210 -1 -71 5 -138 8 -147 8 -10 0 -18 4 -18 10
0 7 -4 7 -13 -1 -8 -6 -16 -9 -18 -7 -2 2 -38 7 -79 11 -41 4 -88 9 -105 11
-16 2 -57 7 -90 10 -33 3 -73 7 -90 9 -16 2 -50 7 -75 10 -43 5 -77 10 -130
19 -14 3 -43 7 -65 10 -22 3 -51 8 -65 11 -14 3 -41 7 -60 10 -19 2 -60 9 -90
16 -30 6 -62 12 -70 13 -8 2 -40 8 -70 14 -30 7 -66 14 -80 16 -14 3 -25 5
-25 6 0 2 -33 9 -65 15 -14 2 -25 4 -25 5 0 1 -11 4 -25 6 -14 3 -77 18 -140
34 -63 16 -124 31 -135 33 -11 2 -27 7 -35 10 -26 9 -99 25 -102 21z"/>
<path d="M12215 3834 c-33 -8 -67 -16 -75 -18 -37 -10 -227 -58 -245 -62 -34
-7 -58 -12 -110 -24 -27 -6 -61 -14 -75 -16 -13 -3 -56 -12 -95 -20 -38 -9
-79 -17 -90 -19 -11 -1 -47 -7 -80 -13 -33 -6 -76 -14 -95 -17 -19 -3 -46 -7
-60 -10 -14 -3 -41 -7 -60 -9 -19 -3 -53 -8 -75 -11 -22 -3 -53 -8 -70 -10
-16 -2 -30 -4 -30 -5 0 -1 -18 -3 -40 -5 -38 -4 -117 -13 -180 -20 -16 -2 -66
-6 -110 -10 -44 -3 -98 -8 -120 -11 -147 -18 -969 -24 -1365 -10 -124 5 -276
9 -337 10 -62 1 -115 5 -119 8 -3 3 -18 3 -32 -1 -15 -5 -36 -6 -47 -4 -73 13
-553 -7 -739 -31 -30 -4 -56 -29 -56 -53 0 -23 44 -41 115 -47 39 -4 81 -8 95
-11 14 -2 43 -6 65 -9 22 -3 54 -8 70 -10 17 -2 53 -7 80 -10 48 -6 75 -10
140 -21 17 -3 48 -8 70 -11 22 -3 67 -10 100 -16 78 -14 114 -19 148 -21 15
-1 27 -4 27 -7 0 -3 10 -5 23 -6 20 0 87 -9 147 -19 14 -2 70 -11 125 -20 55
-9 111 -18 125 -21 14 -2 43 -6 65 -9 22 -3 51 -7 65 -10 14 -2 45 -7 70 -10
25 -4 59 -8 75 -11 17 -3 46 -8 65 -10 19 -3 49 -7 65 -9 17 -3 53 -7 81 -10
28 -3 62 -8 75 -11 13 -3 41 -7 62 -9 21 -2 53 -6 70 -9 18 -3 59 -8 92 -11
33 -3 76 -8 95 -11 19 -3 58 -7 85 -10 28 -2 73 -7 100 -10 84 -9 252 -21 425
-31 236 -13 625 -6 760 12 19 3 51 7 70 9 118 14 355 69 375 87 5 5 16 9 23 9
19 0 155 65 207 99 47 31 98 74 134 115 14 16 33 37 41 46 47 49 84 159 82
237 -2 64 -56 139 -104 145 -13 2 -27 6 -33 9 -5 4 -37 0 -70 -7z"/>
</g>
</svg>
